<?xml version="1.0" encoding="iso-8859-1"?>
<!-- Uploaded to: SVG Repo, www.svgrepo.com, Generator: SVG Repo Mixer Tools -->
<!DOCTYPE svg PUBLIC "-//W3C//DTD SVG 1.1//EN" "http://www.w3.org/Graphics/SVG/1.1/DTD/svg11.dtd">
<svg fill="#000000" version="1.1" id="Capa_1" xmlns="http://www.w3.org/2000/svg" xmlns:xlink="http://www.w3.org/1999/xlink" 
	 width="800px" height="800px" viewBox="0 0 405.984 405.984"
	 xml:space="preserve">
<g>
	<g>
		<path d="M182.22,227.193c5.549,3.726,10.787,7.247,14.193,11.027c1.656,1.842,4.018,2.894,6.492,2.894c0.008,0,0.014,0,0.023,0
			c2.486-0.007,4.848-1.071,6.5-2.927c3.328-3.734,8.564-7.244,14.109-10.961c13.729-9.204,30.816-20.659,30.816-43.347
			c0-17.234-14.021-31.256-31.255-31.256c-7.078,0-13.729,2.287-19.239,6.615l-0.866,0.682l-0.867-0.682
			c-5.508-4.327-12.16-6.614-19.238-6.614c-17.234,0-31.256,14.022-31.256,31.256C151.632,206.648,168.591,218.04,182.22,227.193z"
			/>
		<path d="M402.343,253.12c-27.2-5.271-53.047-8.969-79.012-11.306c-5.164-0.465-10.393-0.7-15.543-0.7
			c-3.146,0-6.24,0.085-9.283,0.246v-26.736c4.379-2.044,8.396-4.854,11.871-8.325c16.262-16.262,16.262-42.722,0-58.983
			l-77.889-77.889c-7.877-7.878-18.351-12.217-29.494-12.217c-11.144,0-21.617,4.339-29.492,12.216l-77.891,77.89
			c-16.262,16.263-16.26,42.723,0,58.979c3.471,3.475,7.49,6.284,11.871,8.328v54.223c0,0.244,0.012,0.484,0.016,0.728
			c-26.27-6.445-61.684-15.083-71.59-17.255c-3.578-0.785-7.213-1.184-10.803-1.184c-12.893,0-23.371,5.123-24.916,12.18
			c-0.744,3.41,0.105,10.097,14.213,16.576l123.707,52.1c4.131,1.525,8.371,3.292,12.863,5.16
			c13.734,5.716,27.938,11.627,41.135,11.626c5.49,0,10.746-0.572,16.063-1.748c9.576-2.119,33.762-9.283,59.367-16.867
			c24.926-7.383,50.699-15.019,61.012-17.339c8.093-1.821,16.433-2.707,25.498-2.707c15.629,0,30.968,2.628,46.609,5.557
			l5.328,0.996v-62.843L402.343,253.12z M138.671,296.694c2.811,8.687,14.416,12.559,37.631,12.559
			c15.518,0,34.684-1.723,54.975-3.547c3.262-0.293,6.575-0.591,9.918-0.886c-27.748,7.471-51.424,11.255-70.484,11.255
			c-21.891,0-36.17-5.086-40.207-14.324c-2.852-6.524-0.15-14.735,7.607-23.116l1.15-1.244l-1.645-0.406
			c-0.158-0.039-3.197-0.789-8.139-2.006c-0.609-1.938-0.955-3.992-0.955-6.131v-61.662c0-4.895-3.377-9.143-8.146-10.249
			c-3.723-0.863-7.141-2.769-9.887-5.517c-8.061-8.058-8.061-21.17-0.002-29.228l77.893-77.891
			c3.902-3.903,9.092-6.053,14.613-6.053c5.521,0,10.711,2.15,14.612,6.055l77.892,77.889c8.059,8.058,8.059,21.17,0.002,29.227
			c-2.75,2.75-6.17,4.658-9.889,5.52c-4.771,1.104-8.146,5.353-8.146,10.249v36.531c-20.75,3.52-39.389,10.096-57.604,16.526
			c-7.509,2.649-18.473,5.3-30.084,8.106c-16.945,4.096-34.469,8.33-42.73,12.998C139.563,285.576,136.745,290.739,138.671,296.694z
			"/>
	</g>
</g>
</svg>